<mxfile host="Electron" modified="2023-06-26T15:06:14.700Z" agent="Mozilla/5.0 (Macintosh; Intel Mac OS X 10_15_7) AppleWebKit/537.36 (KHTML, like Gecko) draw.io/21.4.0 Chrome/112.0.5615.204 Electron/24.5.1 Safari/537.36" etag="_eR6tLMRuhYx-P16CINf" version="21.4.0" type="device">
  <diagram name="第 1 页" id="8Shx13khnTfo6F1SjdZq">
    <mxGraphModel dx="1306" dy="894" grid="1" gridSize="10" guides="1" tooltips="1" connect="1" arrows="1" fold="1" page="1" pageScale="1" pageWidth="827" pageHeight="1169" math="0" shadow="0">
      <root>
        <mxCell id="0" />
        <mxCell id="1" parent="0" />
        <mxCell id="fHCbuP_pC8OpbTmX2ILf-7" value="Heap Space" style="rounded=0;whiteSpace=wrap;html=1;fontStyle=1" parent="1" vertex="1">
          <mxGeometry x="90" y="210" width="260" height="30" as="geometry" />
        </mxCell>
        <mxCell id="fHCbuP_pC8OpbTmX2ILf-8" value="Method Area" style="rounded=0;whiteSpace=wrap;html=1;fontStyle=1" parent="1" vertex="1">
          <mxGeometry x="350" y="210" width="180" height="30" as="geometry" />
        </mxCell>
        <mxCell id="fHCbuP_pC8OpbTmX2ILf-9" value="Native Area" style="rounded=0;whiteSpace=wrap;html=1;fontStyle=1" parent="1" vertex="1">
          <mxGeometry x="530" y="210" width="200" height="30" as="geometry" />
        </mxCell>
        <mxCell id="fHCbuP_pC8OpbTmX2ILf-10" value="Young Genaration" style="rounded=0;whiteSpace=wrap;html=1;fontStyle=3" parent="1" vertex="1">
          <mxGeometry x="90" y="240" width="180" height="40" as="geometry" />
        </mxCell>
        <mxCell id="fHCbuP_pC8OpbTmX2ILf-11" value="Old Genaration" style="rounded=0;whiteSpace=wrap;html=1;fontStyle=3" parent="1" vertex="1">
          <mxGeometry x="270" y="240" width="80" height="40" as="geometry" />
        </mxCell>
        <mxCell id="fHCbuP_pC8OpbTmX2ILf-12" value="Virtual" style="rounded=0;whiteSpace=wrap;html=1;align=center;verticalAlign=middle;horizontal=0;fontStyle=2" parent="1" vertex="1">
          <mxGeometry x="90" y="280" width="30" height="90" as="geometry" />
        </mxCell>
        <mxCell id="fHCbuP_pC8OpbTmX2ILf-13" value="Eden" style="rounded=0;whiteSpace=wrap;html=1;align=center;verticalAlign=middle;horizontal=0;fontStyle=1" parent="1" vertex="1">
          <mxGeometry x="120" y="280" width="30" height="90" as="geometry" />
        </mxCell>
        <mxCell id="fHCbuP_pC8OpbTmX2ILf-14" value="From&lt;br&gt;&amp;nbsp;Survivor0" style="rounded=0;whiteSpace=wrap;html=1;align=center;verticalAlign=middle;horizontal=1;fontStyle=1" parent="1" vertex="1">
          <mxGeometry x="150" y="280" width="60" height="90" as="geometry" />
        </mxCell>
        <mxCell id="fHCbuP_pC8OpbTmX2ILf-15" value="To&lt;br&gt;&amp;nbsp;Survivor1" style="rounded=0;whiteSpace=wrap;html=1;align=center;verticalAlign=middle;horizontal=1;fontStyle=1" parent="1" vertex="1">
          <mxGeometry x="210" y="280" width="60" height="90" as="geometry" />
        </mxCell>
        <mxCell id="fHCbuP_pC8OpbTmX2ILf-16" value="Tenured" style="rounded=0;whiteSpace=wrap;html=1;align=center;verticalAlign=middle;horizontal=1;fontStyle=1" parent="1" vertex="1">
          <mxGeometry x="270" y="280" width="50" height="90" as="geometry" />
        </mxCell>
        <mxCell id="fHCbuP_pC8OpbTmX2ILf-17" value="Virtual" style="rounded=0;whiteSpace=wrap;html=1;align=center;verticalAlign=middle;horizontal=0;fontStyle=2" parent="1" vertex="1">
          <mxGeometry x="320" y="280" width="30" height="90" as="geometry" />
        </mxCell>
        <mxCell id="fHCbuP_pC8OpbTmX2ILf-18" value="Permanent Generation &lt;br&gt;/ MetaSpace" style="rounded=0;whiteSpace=wrap;html=1;fontStyle=1" parent="1" vertex="1">
          <mxGeometry x="350" y="240" width="150" height="40" as="geometry" />
        </mxCell>
        <mxCell id="fHCbuP_pC8OpbTmX2ILf-19" value="Runtime Constant Pool" style="rounded=0;whiteSpace=wrap;html=1;fontStyle=0" parent="1" vertex="1">
          <mxGeometry x="350" y="280" width="150" height="30" as="geometry" />
        </mxCell>
        <mxCell id="fHCbuP_pC8OpbTmX2ILf-20" value="Field &amp;amp; Method Data" style="rounded=0;whiteSpace=wrap;html=1;fontStyle=0" parent="1" vertex="1">
          <mxGeometry x="350" y="310" width="150" height="30" as="geometry" />
        </mxCell>
        <mxCell id="fHCbuP_pC8OpbTmX2ILf-21" value="Code" style="rounded=0;whiteSpace=wrap;html=1;fontStyle=0" parent="1" vertex="1">
          <mxGeometry x="350" y="340" width="150" height="30" as="geometry" />
        </mxCell>
        <mxCell id="fHCbuP_pC8OpbTmX2ILf-22" value="Virtual" style="rounded=0;whiteSpace=wrap;html=1;align=center;verticalAlign=middle;horizontal=0;fontStyle=2" parent="1" vertex="1">
          <mxGeometry x="500" y="240" width="30" height="130" as="geometry" />
        </mxCell>
        <mxCell id="fHCbuP_pC8OpbTmX2ILf-23" value="Cod Cache" style="rounded=0;whiteSpace=wrap;html=1;fontStyle=0" parent="1" vertex="1">
          <mxGeometry x="530" y="240" width="200" height="30" as="geometry" />
        </mxCell>
        <mxCell id="fHCbuP_pC8OpbTmX2ILf-24" value="PC" style="rounded=0;whiteSpace=wrap;html=1;align=center;verticalAlign=middle;horizontal=1;fontStyle=0" parent="1" vertex="1">
          <mxGeometry x="530" y="300" width="30" height="70" as="geometry" />
        </mxCell>
        <mxCell id="fHCbuP_pC8OpbTmX2ILf-25" value="Thread 1-N" style="rounded=0;whiteSpace=wrap;html=1;fontStyle=1" parent="1" vertex="1">
          <mxGeometry x="530" y="270" width="110" height="30" as="geometry" />
        </mxCell>
        <mxCell id="fHCbuP_pC8OpbTmX2ILf-26" value="Stack" style="rounded=0;whiteSpace=wrap;html=1;align=center;verticalAlign=middle;horizontal=1;fontStyle=1" parent="1" vertex="1">
          <mxGeometry x="560" y="300" width="40" height="70" as="geometry" />
        </mxCell>
        <mxCell id="fHCbuP_pC8OpbTmX2ILf-27" value="Native&lt;br&gt;Stack" style="rounded=0;whiteSpace=wrap;html=1;align=center;verticalAlign=middle;horizontal=1;fontStyle=1" parent="1" vertex="1">
          <mxGeometry x="600" y="300" width="40" height="70" as="geometry" />
        </mxCell>
        <mxCell id="fHCbuP_pC8OpbTmX2ILf-28" value="Compile" style="rounded=0;whiteSpace=wrap;html=1;align=center;verticalAlign=middle;horizontal=0;fontStyle=0" parent="1" vertex="1">
          <mxGeometry x="640" y="270" width="30" height="100" as="geometry" />
        </mxCell>
        <mxCell id="fHCbuP_pC8OpbTmX2ILf-29" value="Native" style="rounded=0;whiteSpace=wrap;html=1;align=center;verticalAlign=middle;horizontal=0;fontStyle=0" parent="1" vertex="1">
          <mxGeometry x="670" y="270" width="30" height="100" as="geometry" />
        </mxCell>
        <mxCell id="fHCbuP_pC8OpbTmX2ILf-30" value="Virtual" style="rounded=0;whiteSpace=wrap;html=1;align=center;verticalAlign=middle;horizontal=0;fontStyle=2" parent="1" vertex="1">
          <mxGeometry x="700" y="270" width="30" height="100" as="geometry" />
        </mxCell>
        <mxCell id="fHCbuP_pC8OpbTmX2ILf-34" value="" style="endArrow=none;html=1;rounded=0;" parent="1" edge="1">
          <mxGeometry width="50" height="50" relative="1" as="geometry">
            <mxPoint x="120" y="200" as="sourcePoint" />
            <mxPoint x="120" y="180" as="targetPoint" />
          </mxGeometry>
        </mxCell>
        <mxCell id="fHCbuP_pC8OpbTmX2ILf-36" value="" style="endArrow=none;html=1;rounded=0;" parent="1" edge="1">
          <mxGeometry width="50" height="50" relative="1" as="geometry">
            <mxPoint x="120" y="190" as="sourcePoint" />
            <mxPoint x="270" y="190" as="targetPoint" />
          </mxGeometry>
        </mxCell>
        <mxCell id="fHCbuP_pC8OpbTmX2ILf-38" value="&amp;nbsp; -XX:NewSize&amp;nbsp;" style="edgeLabel;html=1;align=center;verticalAlign=middle;resizable=0;points=[];fontSize=12;" parent="fHCbuP_pC8OpbTmX2ILf-36" vertex="1" connectable="0">
          <mxGeometry x="-0.2204" y="-1" relative="1" as="geometry">
            <mxPoint x="12" y="-1" as="offset" />
          </mxGeometry>
        </mxCell>
        <mxCell id="fHCbuP_pC8OpbTmX2ILf-37" value="" style="endArrow=none;html=1;rounded=0;" parent="1" edge="1">
          <mxGeometry width="50" height="50" relative="1" as="geometry">
            <mxPoint x="269.57" y="200" as="sourcePoint" />
            <mxPoint x="269.57" y="180" as="targetPoint" />
          </mxGeometry>
        </mxCell>
        <mxCell id="fHCbuP_pC8OpbTmX2ILf-39" value="" style="endArrow=none;html=1;rounded=0;" parent="1" edge="1">
          <mxGeometry width="50" height="50" relative="1" as="geometry">
            <mxPoint x="90" y="164" as="sourcePoint" />
            <mxPoint x="90" y="144" as="targetPoint" />
          </mxGeometry>
        </mxCell>
        <mxCell id="fHCbuP_pC8OpbTmX2ILf-40" value="" style="endArrow=none;html=1;rounded=0;fontSize=12;" parent="1" edge="1">
          <mxGeometry width="50" height="50" relative="1" as="geometry">
            <mxPoint x="90" y="154" as="sourcePoint" />
            <mxPoint x="270" y="154" as="targetPoint" />
          </mxGeometry>
        </mxCell>
        <mxCell id="fHCbuP_pC8OpbTmX2ILf-41" value="&amp;nbsp; -XX:MaxNewSize&amp;nbsp;" style="edgeLabel;html=1;align=center;verticalAlign=middle;resizable=0;points=[];" parent="fHCbuP_pC8OpbTmX2ILf-40" vertex="1" connectable="0">
          <mxGeometry x="-0.2204" y="-1" relative="1" as="geometry">
            <mxPoint x="12" y="-1" as="offset" />
          </mxGeometry>
        </mxCell>
        <mxCell id="fHCbuP_pC8OpbTmX2ILf-42" value="" style="endArrow=none;html=1;rounded=0;" parent="1" edge="1">
          <mxGeometry width="50" height="50" relative="1" as="geometry">
            <mxPoint x="269.57" y="165" as="sourcePoint" />
            <mxPoint x="269.57" y="145" as="targetPoint" />
          </mxGeometry>
        </mxCell>
        <mxCell id="fHCbuP_pC8OpbTmX2ILf-43" value="" style="endArrow=none;html=1;rounded=0;" parent="1" edge="1">
          <mxGeometry width="50" height="50" relative="1" as="geometry">
            <mxPoint x="119.31" y="134" as="sourcePoint" />
            <mxPoint x="119.31" y="114" as="targetPoint" />
          </mxGeometry>
        </mxCell>
        <mxCell id="fHCbuP_pC8OpbTmX2ILf-44" value="" style="endArrow=none;html=1;rounded=0;fontSize=12;" parent="1" edge="1">
          <mxGeometry width="50" height="50" relative="1" as="geometry">
            <mxPoint x="119.31" y="124" as="sourcePoint" />
            <mxPoint x="319.31" y="124" as="targetPoint" />
          </mxGeometry>
        </mxCell>
        <mxCell id="fHCbuP_pC8OpbTmX2ILf-45" value="&amp;nbsp; -Xms&amp;nbsp;" style="edgeLabel;html=1;align=center;verticalAlign=middle;resizable=0;points=[];" parent="fHCbuP_pC8OpbTmX2ILf-44" vertex="1" connectable="0">
          <mxGeometry x="-0.2204" y="-1" relative="1" as="geometry">
            <mxPoint x="12" y="-1" as="offset" />
          </mxGeometry>
        </mxCell>
        <mxCell id="fHCbuP_pC8OpbTmX2ILf-46" value="" style="endArrow=none;html=1;rounded=0;" parent="1" edge="1">
          <mxGeometry width="50" height="50" relative="1" as="geometry">
            <mxPoint x="319.31" y="134" as="sourcePoint" />
            <mxPoint x="319.31" y="115" as="targetPoint" />
          </mxGeometry>
        </mxCell>
        <mxCell id="fHCbuP_pC8OpbTmX2ILf-47" value="" style="endArrow=none;html=1;rounded=0;" parent="1" edge="1">
          <mxGeometry width="50" height="50" relative="1" as="geometry">
            <mxPoint x="90" y="104" as="sourcePoint" />
            <mxPoint x="90" y="84" as="targetPoint" />
          </mxGeometry>
        </mxCell>
        <mxCell id="fHCbuP_pC8OpbTmX2ILf-48" value="" style="endArrow=none;html=1;rounded=0;fontSize=12;" parent="1" edge="1">
          <mxGeometry width="50" height="50" relative="1" as="geometry">
            <mxPoint x="90" y="94" as="sourcePoint" />
            <mxPoint x="350" y="94" as="targetPoint" />
          </mxGeometry>
        </mxCell>
        <mxCell id="fHCbuP_pC8OpbTmX2ILf-49" value="&amp;nbsp; -Xmx&amp;nbsp;&amp;nbsp;" style="edgeLabel;html=1;align=center;verticalAlign=middle;resizable=0;points=[];" parent="fHCbuP_pC8OpbTmX2ILf-48" vertex="1" connectable="0">
          <mxGeometry x="-0.2204" y="-1" relative="1" as="geometry">
            <mxPoint x="12" y="-1" as="offset" />
          </mxGeometry>
        </mxCell>
        <mxCell id="fHCbuP_pC8OpbTmX2ILf-50" value="" style="endArrow=none;html=1;rounded=0;" parent="1" edge="1">
          <mxGeometry width="50" height="50" relative="1" as="geometry">
            <mxPoint x="349.58" y="104" as="sourcePoint" />
            <mxPoint x="349.58" y="85" as="targetPoint" />
          </mxGeometry>
        </mxCell>
        <mxCell id="fHCbuP_pC8OpbTmX2ILf-52" value="" style="endArrow=none;html=1;rounded=0;" parent="1" edge="1">
          <mxGeometry width="50" height="50" relative="1" as="geometry">
            <mxPoint x="350" y="200" as="sourcePoint" />
            <mxPoint x="350" y="180" as="targetPoint" />
          </mxGeometry>
        </mxCell>
        <mxCell id="fHCbuP_pC8OpbTmX2ILf-53" value="" style="endArrow=none;html=1;rounded=0;" parent="1" edge="1">
          <mxGeometry width="50" height="50" relative="1" as="geometry">
            <mxPoint x="350" y="190" as="sourcePoint" />
            <mxPoint x="500" y="190" as="targetPoint" />
          </mxGeometry>
        </mxCell>
        <mxCell id="fHCbuP_pC8OpbTmX2ILf-54" value="&amp;nbsp; -XX:PermSize&lt;br style=&quot;font-size: 12px;&quot;&gt;-XX:MetaspaceSize&amp;nbsp;" style="edgeLabel;html=1;align=center;verticalAlign=middle;resizable=0;points=[];fontSize=12;" parent="fHCbuP_pC8OpbTmX2ILf-53" vertex="1" connectable="0">
          <mxGeometry x="-0.2204" y="-1" relative="1" as="geometry">
            <mxPoint x="12" y="-1" as="offset" />
          </mxGeometry>
        </mxCell>
        <mxCell id="fHCbuP_pC8OpbTmX2ILf-55" value="" style="endArrow=none;html=1;rounded=0;" parent="1" edge="1">
          <mxGeometry width="50" height="50" relative="1" as="geometry">
            <mxPoint x="499.57" y="200" as="sourcePoint" />
            <mxPoint x="499.57" y="180" as="targetPoint" />
          </mxGeometry>
        </mxCell>
        <mxCell id="fHCbuP_pC8OpbTmX2ILf-56" value="" style="endArrow=none;html=1;rounded=0;" parent="1" edge="1">
          <mxGeometry width="50" height="50" relative="1" as="geometry">
            <mxPoint x="349.73" y="164" as="sourcePoint" />
            <mxPoint x="349.73" y="144" as="targetPoint" />
          </mxGeometry>
        </mxCell>
        <mxCell id="fHCbuP_pC8OpbTmX2ILf-57" value="" style="endArrow=none;html=1;rounded=0;" parent="1" edge="1">
          <mxGeometry width="50" height="50" relative="1" as="geometry">
            <mxPoint x="349.73" y="154" as="sourcePoint" />
            <mxPoint x="529.73" y="154" as="targetPoint" />
          </mxGeometry>
        </mxCell>
        <mxCell id="fHCbuP_pC8OpbTmX2ILf-58" value="&amp;nbsp; -XX:&amp;nbsp;MaxPermSize&lt;br style=&quot;font-size: 12px;&quot;&gt;-XX:&amp;nbsp;MaxMetaspaceSize&amp;nbsp;" style="edgeLabel;html=1;align=center;verticalAlign=middle;resizable=0;points=[];fontSize=12;" parent="fHCbuP_pC8OpbTmX2ILf-57" vertex="1" connectable="0">
          <mxGeometry x="-0.2204" y="-1" relative="1" as="geometry">
            <mxPoint x="30" y="-1" as="offset" />
          </mxGeometry>
        </mxCell>
        <mxCell id="fHCbuP_pC8OpbTmX2ILf-59" value="" style="endArrow=none;html=1;rounded=0;" parent="1" edge="1">
          <mxGeometry width="50" height="50" relative="1" as="geometry">
            <mxPoint x="529.3100000000001" y="164" as="sourcePoint" />
            <mxPoint x="529.3100000000001" y="144" as="targetPoint" />
          </mxGeometry>
        </mxCell>
        <mxCell id="fHCbuP_pC8OpbTmX2ILf-61" value="" style="endArrow=none;html=1;rounded=0;" parent="1" edge="1">
          <mxGeometry width="50" height="50" relative="1" as="geometry">
            <mxPoint x="559.2" y="200" as="sourcePoint" />
            <mxPoint x="559.2" y="180" as="targetPoint" />
          </mxGeometry>
        </mxCell>
        <mxCell id="fHCbuP_pC8OpbTmX2ILf-62" value="" style="endArrow=none;html=1;rounded=0;" parent="1" edge="1">
          <mxGeometry width="50" height="50" relative="1" as="geometry">
            <mxPoint x="559.2" y="190" as="sourcePoint" />
            <mxPoint x="639.2" y="190" as="targetPoint" />
          </mxGeometry>
        </mxCell>
        <mxCell id="fHCbuP_pC8OpbTmX2ILf-63" value="&amp;nbsp; -Xss&amp;nbsp;" style="edgeLabel;html=1;align=center;verticalAlign=middle;resizable=0;points=[];fontSize=12;" parent="fHCbuP_pC8OpbTmX2ILf-62" vertex="1" connectable="0">
          <mxGeometry x="-0.2204" y="-1" relative="1" as="geometry">
            <mxPoint x="9" y="-1" as="offset" />
          </mxGeometry>
        </mxCell>
        <mxCell id="fHCbuP_pC8OpbTmX2ILf-64" value="" style="endArrow=none;html=1;rounded=0;" parent="1" edge="1">
          <mxGeometry width="50" height="50" relative="1" as="geometry">
            <mxPoint x="639.2" y="200" as="sourcePoint" />
            <mxPoint x="639.2" y="180" as="targetPoint" />
          </mxGeometry>
        </mxCell>
        <mxCell id="fHCbuP_pC8OpbTmX2ILf-65" value="" style="endArrow=none;html=1;rounded=0;" parent="1" edge="1">
          <mxGeometry width="50" height="50" relative="1" as="geometry">
            <mxPoint x="90" y="70" as="sourcePoint" />
            <mxPoint x="90" y="50" as="targetPoint" />
          </mxGeometry>
        </mxCell>
        <mxCell id="fHCbuP_pC8OpbTmX2ILf-66" value="" style="endArrow=none;html=1;rounded=0;" parent="1" edge="1">
          <mxGeometry width="50" height="50" relative="1" as="geometry">
            <mxPoint x="90" y="60" as="sourcePoint" />
            <mxPoint x="730" y="60" as="targetPoint" />
          </mxGeometry>
        </mxCell>
        <mxCell id="fHCbuP_pC8OpbTmX2ILf-67" value="&amp;nbsp; Runtime Data Area (Total Size)&amp;nbsp;&amp;nbsp;" style="edgeLabel;html=1;align=center;verticalAlign=middle;resizable=0;points=[];fontStyle=1;fontSize=12;" parent="fHCbuP_pC8OpbTmX2ILf-66" vertex="1" connectable="0">
          <mxGeometry x="-0.2204" y="-1" relative="1" as="geometry">
            <mxPoint x="75" y="-1" as="offset" />
          </mxGeometry>
        </mxCell>
        <mxCell id="fHCbuP_pC8OpbTmX2ILf-68" value="" style="endArrow=none;html=1;rounded=0;" parent="1" edge="1">
          <mxGeometry width="50" height="50" relative="1" as="geometry">
            <mxPoint x="729.46" y="70" as="sourcePoint" />
            <mxPoint x="729.46" y="51" as="targetPoint" />
          </mxGeometry>
        </mxCell>
      </root>
    </mxGraphModel>
  </diagram>
</mxfile>
